<?xml version="1.0" encoding="utf-8"?>
<!-- Generator: Adobe Illustrator 26.0.3, SVG Export Plug-In . SVG Version: 6.00 Build 0)  -->
<svg version="1.1" id="Layer_1" xmlns="http://www.w3.org/2000/svg" xmlns:xlink="http://www.w3.org/1999/xlink" x="0px" y="0px"
	 viewBox="0 0 1703 1149" style="enable-background:new 0 0 1703 1149;" xml:space="preserve">
<style type="text/css">
	.st0{clip-path:url(#SVGID_00000143585022922266512270000015604972279686814102_);}
	.st1{fill:#63D9F6;}
	.st2{opacity:0.5;fill:url(#SVGID_00000060013799023820611290000001168998013864543881_);enable-background:new    ;}
	.st3{fill:#FFFFFF;}
	.st4{opacity:0.5;fill:url(#SVGID_00000123398881749314711940000005246879394758408844_);enable-background:new    ;}
	.st5{opacity:7.000000e-02;enable-background:new    ;}
	.st6{opacity:5.000000e-02;enable-background:new    ;}
	.st7{stroke:#000000;stroke-width:10;stroke-miterlimit:10;}
	.st8{stroke:#000000;stroke-width:10.0004;stroke-miterlimit:10.0004;}
	.st9{opacity:0.1;fill:url(#SVGID_00000119806765905998198490000008788293633863122621_);}
	.st10{opacity:5.000000e-02;fill:none;stroke:#000000;stroke-width:5;stroke-miterlimit:10;}
	.st11{fill:#199BE2;}
	.st12{opacity:2.000000e-02;fill:none;stroke:#000000;stroke-width:10;stroke-miterlimit:10;}
	.st13{fill:url(#SVGID_00000060740731093986011370000016437760603399850167_);}
	.st14{fill:url(#SVGID_00000043438757170339628000000007822713934708201892_);}
	.st15{fill:url(#SVGID_00000061473713951043180800000005495338898294509958_);}
	.st16{opacity:0.1;}
	.st17{fill:url(#SVGID_00000022552654986634208130000004320026922970119841_);}
	.st18{fill:url(#SVGID_00000181089308714466469720000004298578639920462482_);}
	.st19{opacity:7.000000e-02;}
	.st20{fill:url(#SVGID_00000089552658109067654790000010023360862585658763_);}
	.st21{fill:url(#SVGID_00000042000568546576269820000014572635908424893602_);}
	.st22{fill:url(#SVGID_00000141439829292553132680000012724628990271519909_);}
	.st23{fill:url(#SVGID_00000170979383296786810600000011319546593728000164_);}
	.st24{fill:url(#SVGID_00000003089209828569161990000004227005203964407456_);}
	.st25{fill:url(#SVGID_00000150093006992420618130000016601646578058517391_);}
	.st26{fill:url(#SVGID_00000079476975041556139620000005264732007038666369_);}
	.st27{fill:url(#SVGID_00000148641333269613709150000001949716051319749023_);}
	.st28{fill:url(#SVGID_00000037670395162407064320000001420865125579702923_);}
	.st29{fill:url(#SVGID_00000080203056155312898250000009176374087228241290_);}
	.st30{fill:none;stroke:#D83B01;stroke-width:7.5;stroke-linecap:round;stroke-miterlimit:50;}
	.st31{fill:none;stroke:#45494D;stroke-width:7.5;stroke-linecap:round;stroke-miterlimit:50;}
	.st32{fill:none;stroke:#45494D;stroke-width:12.5;stroke-linecap:round;stroke-miterlimit:50;}
	.st33{fill:#1E2021;}
	.st34{fill:url(#SVGID_00000016784211303006454210000014031607430605395854_);}
	.st35{fill:url(#SVGID_00000059270491026663980680000016592826205172116623_);}
	.st36{fill:url(#SVGID_00000029013048223381577570000016939296228286229645_);}
	.st37{fill:url(#SVGID_00000090285749559799948670000014151658367056849850_);}
	.st38{fill:url(#SVGID_00000168091222508552906500000001803079535720311199_);}
	.st39{fill:url(#SVGID_00000158751492880679673430000007515135874168081584_);}
	.st40{fill:url(#SVGID_00000151523403292767411630000001788878115968995232_);}
	.st41{opacity:0.5;fill:#FFFFFF;enable-background:new    ;}
	.st42{opacity:5.000000e-02;}
	.st43{opacity:2.000000e-02;}
	.st44{fill:url(#SVGID_00000071539152510462645230000000550223996767988617_);}
	.st45{fill:url(#SVGID_00000084511613417900646340000008371939707332209070_);}
	.st46{fill:url(#SVGID_00000150799178402698502700000008339586872479066518_);}
	.st47{fill:#E32F25;}
	.st48{fill:url(#SVGID_00000021093288016540649850000002464879552270766774_);}
	.st49{fill:none;stroke:#000000;stroke-width:10;stroke-miterlimit:10;}
	.st50{fill:none;stroke:#000000;stroke-width:5;stroke-miterlimit:10;}
	.st51{opacity:0.3;}
	.st52{opacity:0.7;}
	.st53{fill:url(#SVGID_00000156562120534831927280000007545825126701023126_);}
	.st54{fill:url(#SVGID_00000103950218902443096740000014852095561054648745_);}
	.st55{fill:url(#SVGID_00000183217536493508342930000014337687828237729721_);}
	.st56{fill:url(#SVGID_00000087405949396092784080000012079068570883705019_);}
	.st57{fill:url(#SVGID_00000042730738036997960360000015075094914734819461_);}
	.st58{fill:#23BB79;}
	.st59{fill:url(#SVGID_00000011723221822279602600000007761899208681286792_);}
	.st60{fill:url(#SVGID_00000153667097196263336990000006673737203116679352_);}
	.st61{fill:url(#SVGID_00000080186582986528207670000004939537170047225776_);}
	.st62{fill:url(#SVGID_00000044878974523589459790000001453144188846926224_);}
	.st63{fill:url(#SVGID_00000091695016704314320150000013950849054563542713_);}
	.st64{fill:url(#SVGID_00000093861571943157394750000006495116732835045310_);}
	.st65{fill:url(#SVGID_00000021086922476653183550000009920143889796024718_);}
	.st66{fill:#E6E7E8;}
	.st67{opacity:0.6;enable-background:new    ;}
	.st68{fill:url(#SVGID_00000081629954753994477070000008686580302281304980_);}
	.st69{fill:#424649;}
	.st70{fill:#A6A8AB;}
	.st71{opacity:0.6;fill:url(#SVGID_00000113334508550662576240000000912522508672692359_);enable-background:new    ;}
	.st72{fill:url(#SVGID_00000109736198322891963390000011506109722930638228_);}
</style>
<g>
	
		<linearGradient id="SVGID_00000101784686828497105100000004799793821593242803_" gradientUnits="userSpaceOnUse" x1="497.753" y1="529.4073" x2="1209.1531" y2="529.4073">
		<stop  offset="0" style="stop-color:#E24E25"/>
		<stop  offset="0.517" style="stop-color:#E32F25"/>
		<stop  offset="1" style="stop-color:#E32F25"/>
	</linearGradient>
	
		<circle style="opacity:0.1;fill:url(#SVGID_00000101784686828497105100000004799793821593242803_);" cx="853.5" cy="529.4" r="355.7"/>
	<path class="st10" d="M956.6,143.8l7.8-39.4l5.6-28.1c1.2-6.2-2.8-12.2-9-13.5l-16.9-3.3l0,0.1c-0.4-0.1-0.8-0.2-1.2-0.3
		L786.7,28.4c-6.9-1.4-13.5,2.6-14.7,8.8l-37.8,191.2c-1.2,6.2,3.4,12.4,10.3,13.7l88.4,17.5c4.1,18.7,15.9,35.5,34,45.3
		c32.9,17.7,74,5.4,91.7-27.5c14.7-27.3,8.7-60.2-12.5-80.7l1.6-7.9L956.6,143.8z"/>
	<g>
		<path class="st11" d="M608.6,495.7l-17.2,12.4l27.7,38.4c0.7,1,2,1.2,3,0.5l13.8-9.9c0.9-0.7,1.2-2,0.5-3L608.6,495.7z"/>
		<g>
			<path class="st10" d="M565.1,236.2l-25.7-4.2l-31.9-5.2c-5.6-0.9-10.9,2.9-11.8,8.5l-7.3,44.9l-6-1l-29.4-4.8
				c-5.6-0.9-10.9,2.9-11.8,8.5l-7.4,45.6l-11.1-1.8l-24-3.9c-5.1-0.8-9.8,2.6-10.7,7.7l-15.1,93c-0.8,5.1,2.6,9.8,7.7,10.7
				l35.1,5.7l0,0l15.1,2.4l16.6,2.7l0,0l13.9,2.3l0,0l67.7,11c5.6,0.9,10.9-2.9,11.8-8.5L573.6,248
				C574.5,242.4,570.7,237.1,565.1,236.2z"/>
			<path class="st12" d="M565.1,236.2l-25.7-4.2l-31.9-5.2c-5.6-0.9-10.9,2.9-11.8,8.5l-7.3,44.9l-6-1l-29.4-4.8
				c-5.6-0.9-10.9,2.9-11.8,8.5l-7.4,45.6l-11.1-1.8l-24-3.9c-5.1-0.8-9.8,2.6-10.7,7.7l-15.1,93c-0.8,5.1,2.6,9.8,7.7,10.7
				l35.1,5.7l0,0l15.1,2.4l16.6,2.7l0,0l13.9,2.3l0,0l67.7,11c5.6,0.9,10.9-2.9,11.8-8.5L573.6,248
				C574.5,242.4,570.7,237.1,565.1,236.2z"/>
			<g>
				
					<linearGradient id="SVGID_00000036957302762250657660000002586928297081387914_" gradientUnits="userSpaceOnUse" x1="464.5596" y1="340.9836" x2="466.5863" y2="565.9371" gradientTransform="matrix(0.9872 0.1597 -0.1597 0.9872 133.9996 -197.8893)">
					<stop  offset="0" style="stop-color:#FFD867"/>
					<stop  offset="0.4907" style="stop-color:#F2C957"/>
					<stop  offset="0.5445" style="stop-color:#F9C73E"/>
					<stop  offset="0.82" style="stop-color:#FEC62E"/>
				</linearGradient>
				<path style="fill:url(#SVGID_00000036957302762250657660000002586928297081387914_);" d="M529.2,458.3l-67.7-11l34.3-212
					c0.9-5.6,6.2-9.4,11.8-8.5l31.9,5.2l25.7,4.2c5.6,0.9,9.4,6.2,8.5,11.8L541,449.8C540.1,455.4,534.8,459.2,529.2,458.3z"/>
			</g>
			<g>
				
					<linearGradient id="SVGID_00000001638367940151996210000004746076338486848173_" gradientUnits="userSpaceOnUse" x1="424.1232" y1="436.0165" x2="418.3096" y2="540.4651" gradientTransform="matrix(0.9872 0.1597 -0.1597 0.9872 133.9996 -197.8893)">
					<stop  offset="0" style="stop-color:#32BDEF"/>
					<stop  offset="1" style="stop-color:#1EA2E4"/>
				</linearGradient>
				<path style="fill:url(#SVGID_00000001638367940151996210000004746076338486848173_);" d="M495,452.8L415.9,440l25.4-156.9
					c0.9-5.6,6.2-9.4,11.8-8.5l29.4,4.8l29.4,4.8c5.6,0.9,9.4,6.2,8.5,11.8L495,452.8z"/>
				
					<linearGradient id="SVGID_00000163056249210351883440000002524067904851870134_" gradientUnits="userSpaceOnUse" x1="402.9224" y1="503.153" x2="428.8792" y2="305.2069">
					<stop  offset="0.24" style="stop-color:#662D91"/>
					<stop  offset="0.85" style="stop-color:#8764B8"/>
				</linearGradient>
				<path style="fill:url(#SVGID_00000163056249210351883440000002524067904851870134_);" d="M447.6,445.1l-66.7-10.8
					c-5.1-0.8-8.5-5.6-7.7-10.7l15.1-93c0.8-5.1,5.6-8.5,10.7-7.7l24,3.9l34.2,5.5c4.7,0.8,7.9,5.2,7.2,9.9L447.6,445.1z"/>
			</g>
			<g class="st16">
				
					<image style="overflow:visible;enable-background:new    ;" width="970" height="970" xlink:href="83E3F57E.png"  transform="matrix(0.2687 4.348352e-02 -4.348352e-02 0.2687 452.179 297)">
				</image>
			</g>
			
				<radialGradient id="SVGID_00000062190057268016424800000005541165236785287343_" cx="238.4129" cy="725.6788" r="16.6727" gradientTransform="matrix(4.9358 0.7987 -0.7987 4.9358 -47.1691 -3339.2192)" gradientUnits="userSpaceOnUse">
				<stop  offset="0.69" style="stop-color:#006185"/>
				<stop  offset="0.92" style="stop-color:#35C1F1"/>
			</radialGradient>
			<polygon style="fill:url(#SVGID_00000062190057268016424800000005541165236785287343_);" points="593.2,474.3 575.9,486.8 
				591.3,508.1 608.6,495.7 			"/>
			
				<linearGradient id="SVGID_00000062912658478619286950000015061192245704473772_" gradientUnits="userSpaceOnUse" x1="228.9543" y1="716.1623" x2="248.0429" y2="735.2396" gradientTransform="matrix(4.9358 0.7987 -0.7987 4.9358 -47.1691 -3339.2192)">
				<stop  offset="0" style="stop-color:#A3FFFF"/>
				<stop  offset="0.22" style="stop-color:#9DFBFF"/>
				<stop  offset="0.53" style="stop-color:#8BF1FF"/>
				<stop  offset="0.89" style="stop-color:#6EE0FF"/>
				<stop  offset="1" style="stop-color:#63DAFF"/>
			</linearGradient>
			<circle style="fill:url(#SVGID_00000062912658478619286950000015061192245704473772_);" cx="549.9" cy="432.6" r="68.1"/>
			<g class="st19">
				
					<image style="overflow:visible;enable-background:new    ;" width="787" height="786" xlink:href="83E3F579.png"  transform="matrix(0.2687 4.348352e-02 -4.348352e-02 0.2687 461.4657 310.0609)">
				</image>
			</g>
			
				<linearGradient id="SVGID_00000033356545350189786470000010858499267774058145_" gradientUnits="userSpaceOnUse" x1="437.2833" y1="555.913" x2="585.319" y2="555.913" gradientTransform="matrix(0.9872 0.1597 -0.1597 0.9872 133.9996 -197.8893)">
				<stop  offset="0" style="stop-color:#114787"/>
				<stop  offset="1" style="stop-color:#173A73"/>
			</linearGradient>
			<path style="fill:url(#SVGID_00000033356545350189786470000010858499267774058145_);" d="M538.1,505.6
				c-40.4-6.5-67.8-44.5-61.3-84.9c6.5-40.4,44.5-67.8,84.9-61.3c40.4,6.5,67.8,44.5,61.3,84.9c0,0,0,0,0,0
				C616.4,484.7,578.5,512.1,538.1,505.6z M559.9,371.3c-33.9-5.5-65.7,17.5-71.2,51.4c-5.5,33.9,17.5,65.7,51.4,71.2
				c33.9,5.5,65.7-17.5,71.2-51.4c0,0,0,0,0,0C616.7,408.7,593.7,376.8,559.9,371.3z"/>
		</g>
	</g>
	<g>
		<g>
			
				<linearGradient id="SVGID_00000057857539670084488420000006157051598994252466_" gradientUnits="userSpaceOnUse" x1="615.4481" y1="1382.5239" x2="615.4481" y2="1387.9441" gradientTransform="matrix(-0.9685 4.9053 4.9053 0.9685 -5253.127 -4239.4341)">
				<stop  offset="0.3" style="stop-color:#9C6500"/>
				<stop  offset="0.651" style="stop-color:#F2D33A"/>
			</linearGradient>
			<polygon style="fill:url(#SVGID_00000057857539670084488420000006157051598994252466_);" points="936.3,98.8 964.4,104.4 
				956.6,143.8 928.5,138.2 			"/>
			
				<linearGradient id="SVGID_00000021828084100086507760000012987340172167048379_" gradientUnits="userSpaceOnUse" x1="624.0461" y1="1382.5239" x2="624.0461" y2="1387.9441" gradientTransform="matrix(-0.9685 4.9053 4.9053 0.9685 -5253.127 -4239.4341)">
				<stop  offset="0.3" style="stop-color:#1A7317"/>
				<stop  offset="0.65" style="stop-color:#6DD669"/>
			</linearGradient>
			<polygon style="fill:url(#SVGID_00000021828084100086507760000012987340172167048379_);" points="928.5,138.2 956.6,143.8 
				947.8,188.7 919.6,183.2 			"/>
			
				<linearGradient id="SVGID_00000088104765131893997140000002547181304395445908_" gradientUnits="userSpaceOnUse" x1="633.2173" y1="1382.5239" x2="633.2173" y2="1387.9441" gradientTransform="matrix(-0.9685 4.9053 4.9053 0.9685 -5253.127 -4239.4341)">
				<stop  offset="0.3" style="stop-color:#0670AD"/>
				<stop  offset="0.65" style="stop-color:#08B7E8"/>
			</linearGradient>
			<polygon style="fill:url(#SVGID_00000088104765131893997140000002547181304395445908_);" points="919.6,183.2 947.8,188.7 
				938.9,233.7 910.8,228.2 			"/>
			
				<linearGradient id="SVGID_00000032644439123661556320000003818058414195861681_" gradientUnits="userSpaceOnUse" x1="642.3885" y1="1382.5239" x2="642.3885" y2="1387.9199" gradientTransform="matrix(-0.9685 4.9053 4.9053 0.9685 -5253.127 -4239.4341)">
				<stop  offset="0.301" style="stop-color:#5829A1"/>
				<stop  offset="0.65" style="stop-color:#8F4FE8"/>
			</linearGradient>
			<path style="fill:url(#SVGID_00000032644439123661556320000003818058414195861681_);" d="M932.2,267.5l6.7-33.7l-28.1-5.6
				l-8.9,45l16.9,3.3C925,277.7,931,273.7,932.2,267.5z"/>
			
				<linearGradient id="SVGID_00000047044641416756775700000016794468896945863565_" gradientUnits="userSpaceOnUse" x1="607.4233" y1="1382.5239" x2="607.4233" y2="1387.9441" gradientTransform="matrix(-0.9685 4.9053 4.9053 0.9685 -5253.127 -4239.4341)">
				<stop  offset="0.302" style="stop-color:#A63F62"/>
				<stop  offset="0.65" style="stop-color:#E86B97"/>
			</linearGradient>
			<path style="fill:url(#SVGID_00000047044641416756775700000016794468896945863565_);" d="M970,76.3c1.2-6.2-2.8-12.2-9-13.5
				l-16.9-3.3l-7.8,39.4l28.1,5.6L970,76.3z"/>
			<g>
				
					<linearGradient id="SVGID_00000162322390905239344650000003653981401302714297_" gradientUnits="userSpaceOnUse" x1="714.3036" y1="1516.6951" x2="735.7967" y2="1472.1483" gradientTransform="matrix(4.9053 0.9685 0.9685 -4.9053 -4161.1421 6775.7202)">
					<stop  offset="0" style="stop-color:#E24E25"/>
					<stop  offset="0.517" style="stop-color:#E32F25"/>
					<stop  offset="1" style="stop-color:#E32F25"/>
				</linearGradient>
				<path style="fill:url(#SVGID_00000162322390905239344650000003653981401302714297_);" d="M953.1,72.9
					c1.2-6.2-3.4-12.4-10.3-13.7L786.7,28.4c-6.9-1.4-13.5,2.6-14.7,8.8l-37.8,191.2c-1.2,6.2,3.4,12.4,10.3,13.7l156.1,30.8
					c6.9,1.4,13.5-2.6,14.7-8.8L953.1,72.9z"/>
				<g>
					<path class="st3" d="M860,70.9c0.7,0.1,1.2,0.8,1,1.6c-0.1,0.3-0.1,0.5-0.2,0.8c-3,8.1-1.4,13.2,6.4,18.8
						c7.2,5.2,12.3,14,16.8,22c4.6,8.4,3.7,9.1-4.8,13.7c-0.1,0-0.2,0.1-0.3,0.1c-2.7,1.4-6,0.7-8-1.6c-4.7-5.2-11.3-0.6-17.7-0.2
						c-1,0.1-1.5,1.1-1.1,2c8,13.9,18.9,26.2,18.6,43.8c0,0.8-0.8,1.4-1.6,1.3c-17.9-3.5-35.4-6.9-52.8-10.6
						c-1.4-0.3-3.2-2.3-3.5-3.7c-4.4-17.1-6.4-34.2,1.3-50.9c4.7-10.4,12.5-17.4,23.1-21.7c3.3-1.3,5.9-4.2,8.8-6.4
						c4-3,8-5.9,12-8.9c0.3-0.2,0.7-0.3,1-0.2L860,70.9z"/>
					<path class="st3" d="M795.9,192.5l8.8-9.7c0.6-0.7,0.3-1.8-0.6-2.1l-0.3-0.1c-2.8-0.9-4.5-3.7-3.9-6.6l0,0
						c0.6-3.1,3.6-5.1,6.7-4.5l67.8,13.4c3.1,0.6,5.1,3.6,4.5,6.7v0c-0.6,2.8-3.2,4.8-6.1,4.6l-0.4,0c-1-0.1-1.7,0.9-1.4,1.8
						l4.4,12.3c1.7,4.7-2.4,9.5-7.3,8.5l-68.8-13.6C794.5,202.2,792.5,196.2,795.9,192.5z"/>
				</g>
			</g>
		</g>
		
			<linearGradient id="SVGID_00000132064013064398235430000012042293105612434622_" gradientUnits="userSpaceOnUse" x1="729.7874" y1="1437.9104" x2="748.9353" y2="1418.7625" gradientTransform="matrix(4.4024 2.3704 2.3704 -4.4024 -5741.6431 4780.6865)">
			<stop  offset="0" style="stop-color:#889097"/>
			<stop  offset="1" style="stop-color:#64717C"/>
		</linearGradient>
		<circle style="fill:url(#SVGID_00000132064013064398235430000012042293105612434622_);" cx="899.1" cy="245.2" r="67.7"/>
		
			<radialGradient id="SVGID_00000000915928172163909940000015969183743902863496_" cx="739.3613" cy="1428.3364" r="12.5241" gradientTransform="matrix(4.4024 2.3704 2.3704 -4.4024 -5741.6431 4780.6865)" gradientUnits="userSpaceOnUse">
			<stop  offset="0" style="stop-color:#000000"/>
			<stop  offset="1" style="stop-color:#000000;stop-opacity:0"/>
		</radialGradient>
		<circle style="fill:url(#SVGID_00000000915928172163909940000015969183743902863496_);" cx="899.1" cy="245.2" r="62.6"/>
		
			<radialGradient id="SVGID_00000135661368619647423890000002164015510959185024_" cx="739.2869" cy="1439.5784" r="25.6461" gradientTransform="matrix(4.4024 2.3704 2.3704 -4.4024 -5741.6431 4780.6865)" gradientUnits="userSpaceOnUse">
			<stop  offset="0" style="stop-color:#FAFAFB"/>
			<stop  offset="1" style="stop-color:#C8CDD1"/>
		</radialGradient>
		<circle style="fill:url(#SVGID_00000135661368619647423890000002164015510959185024_);" cx="899.1" cy="245.2" r="57.5"/>
		<line class="st30" x1="899.1" y1="245.2" x2="879.8" y2="281"/>
		<line class="st31" x1="899.1" y1="245.2" x2="938" y2="233.5"/>
		<g>
			<line class="st32" x1="899.1" y1="245.2" x2="881.9" y2="221.6"/>
		</g>
		<circle class="st33" cx="899.1" cy="245.2" r="6.8"/>
	</g>
	
		<linearGradient id="SVGID_00000159429740831380749670000012708321042536633224_" gradientUnits="userSpaceOnUse" x1="989.7808" y1="1071" x2="1190" y2="1071">
		<stop  offset="0" style="stop-color:#E24E25"/>
		<stop  offset="0.517" style="stop-color:#E32F25"/>
		<stop  offset="1" style="stop-color:#E32F25"/>
	</linearGradient>
	<path style="fill:url(#SVGID_00000159429740831380749670000012708321042536633224_);" d="M1162,1099h-144.2c-15.5,0-28-12.5-28-28
		l0,0c0-15.5,12.5-28,28-28H1162c15.5,0,28,12.5,28,28l0,0C1190,1086.5,1177.5,1099,1162,1099z"/>
	<g>
		<path class="st3" d="M1049.1,1058.6v20.5h-4.1v-1.7c-1.1,1.3-2.7,1.9-4.6,1.9c-4.2,0-7.4-3-7.4-7.7c0-4.7,3.2-7.7,7.4-7.7
			c1.8,0,3.4,0.6,4.4,1.8v-7.2H1049.1z M1044.9,1071.6c0-2.6-1.7-4.1-3.8-4.1c-2.2,0-3.8,1.5-3.8,4.1s1.7,4.1,3.8,4.1
			C1043.3,1075.8,1044.9,1074.2,1044.9,1071.6z"/>
		<path class="st3" d="M1067.6,1072.9h-11.2c0.4,1.9,2,3,4.3,3c1.6,0,2.7-0.5,3.7-1.4l2.3,2.5c-1.4,1.6-3.5,2.4-6.1,2.4
			c-5.1,0-8.5-3.2-8.5-7.7c0-4.4,3.4-7.7,7.9-7.7c4.4,0,7.7,2.9,7.7,7.7C1067.7,1072,1067.6,1072.5,1067.6,1072.9z M1056.3,1070.3
			h7.3c-0.3-1.9-1.7-3.1-3.6-3.1C1058,1067.2,1056.6,1068.4,1056.3,1070.3z"/>
		<path class="st3" d="M1070.5,1058.6h4.3v20.5h-4.3V1058.6z"/>
		<path class="st3" d="M1078.3,1059.7c0-1.4,1.1-2.4,2.7-2.4c1.6,0,2.7,1,2.7,2.3c0,1.4-1.1,2.5-2.7,2.5
			C1079.4,1062.1,1078.3,1061.1,1078.3,1059.7z M1078.9,1064.2h4.3v14.9h-4.3V1064.2z"/>
		<path class="st3" d="M1101.9,1064.2l-6.3,14.9h-4.4l-6.2-14.9h4.4l4.1,10.1l4.3-10.1H1101.9z"/>
		<path class="st3" d="M1117.7,1072.9h-11.2c0.4,1.9,2,3,4.3,3c1.6,0,2.7-0.5,3.7-1.4l2.3,2.5c-1.4,1.6-3.5,2.4-6.1,2.4
			c-5.1,0-8.5-3.2-8.5-7.7c0-4.4,3.4-7.7,7.9-7.7c4.4,0,7.7,2.9,7.7,7.7C1117.8,1072,1117.8,1072.5,1117.7,1072.9z M1106.4,1070.3
			h7.3c-0.3-1.9-1.7-3.1-3.6-3.1C1108.2,1067.2,1106.8,1068.4,1106.4,1070.3z"/>
		<path class="st3" d="M1129.9,1064v4c-0.4,0-0.6-0.1-1-0.1c-2.4,0-3.9,1.3-3.9,4.1v7h-4.3v-14.9h4.1v2
			C1125.9,1064.7,1127.6,1064,1129.9,1064z"/>
		<path class="st3" d="M1147.8,1064.2l-6.7,15.8c-1.4,3.6-3.5,4.7-6.2,4.7c-1.5,0-3.2-0.5-4.1-1.4l1.6-3.1c0.7,0.6,1.6,0.9,2.4,0.9
			c1.2,0,1.9-0.5,2.4-1.8l0.1-0.1l-6.4-15h4.4l4.2,10.1l4.2-10.1H1147.8z"/>
	</g>
	
		<linearGradient id="SVGID_00000076566039725163729970000003703599170335268788_" gradientUnits="userSpaceOnUse" x1="1296.2965" y1="781" x2="1455.3319" y2="781">
		<stop  offset="0" style="stop-color:#E24E25"/>
		<stop  offset="0.517" style="stop-color:#E32F25"/>
		<stop  offset="1" style="stop-color:#E32F25"/>
	</linearGradient>
	<path style="fill:url(#SVGID_00000076566039725163729970000003703599170335268788_);" d="M1427.3,809h-103c-15.5,0-28-12.5-28-28
		l0,0c0-15.5,12.5-28,28-28h103c15.5,0,28,12.5,28,28l0,0C1455.3,796.5,1442.8,809,1427.3,809z"/>
	<g>
		<path class="st3" d="M1340.3,787.7l1.4-3.1c1.3,0.9,3.3,1.4,5.2,1.4c2,0,2.7-0.5,2.7-1.4c0-2.4-9,0.1-9-5.9c0-2.8,2.5-4.8,6.9-4.8
			c2,0,4.3,0.5,5.7,1.3l-1.4,3.1c-1.5-0.8-2.9-1.1-4.3-1.1c-1.9,0-2.8,0.6-2.8,1.4c0,2.5,9,0.1,9,5.9c0,2.8-2.6,4.7-7,4.7
			C1344.2,789.3,1341.7,788.6,1340.3,787.7z"/>
		<path class="st3" d="M1369.6,780.6v8.5h-4v-1.9c-0.8,1.4-2.3,2.1-4.5,2.1c-3.5,0-5.6-1.9-5.6-4.5c0-2.6,1.9-4.4,6.4-4.4h3.4
			c0-1.9-1.1-2.9-3.4-2.9c-1.6,0-3.2,0.5-4.3,1.4l-1.5-3c1.6-1.2,4-1.8,6.4-1.8C1366.9,774,1369.6,776.1,1369.6,780.6z
			 M1365.3,784.4v-1.5h-3c-2,0-2.7,0.7-2.7,1.7c0,1.1,0.9,1.8,2.4,1.8C1363.5,786.4,1364.8,785.7,1365.3,784.4z"/>
		<path class="st3" d="M1373.5,768.6h4.3v20.5h-4.3V768.6z"/>
		<path class="st3" d="M1396.2,782.9H1385c0.4,1.9,2,3,4.3,3c1.6,0,2.7-0.5,3.7-1.4l2.3,2.5c-1.4,1.6-3.5,2.4-6.1,2.4
			c-5.1,0-8.5-3.2-8.5-7.7c0-4.4,3.4-7.7,7.9-7.7c4.4,0,7.7,2.9,7.7,7.7C1396.3,782,1396.3,782.5,1396.2,782.9z M1384.9,780.3h7.3
			c-0.3-1.9-1.7-3.1-3.6-3.1C1386.7,777.2,1385.2,778.4,1384.9,780.3z"/>
		<path class="st3" d="M1397.8,787.7l1.4-3.1c1.3,0.9,3.3,1.4,5.2,1.4c2,0,2.7-0.5,2.7-1.4c0-2.4-9,0.1-9-5.9c0-2.8,2.5-4.8,6.9-4.8
			c2,0,4.3,0.5,5.7,1.3l-1.4,3.1c-1.5-0.8-2.9-1.1-4.3-1.1c-1.9,0-2.8,0.6-2.8,1.4c0,2.5,9,0.1,9,5.9c0,2.8-2.6,4.7-7,4.7
			C1401.7,789.3,1399.1,788.6,1397.8,787.7z"/>
	</g>
	
		<linearGradient id="SVGID_00000147898798537299796710000016348024667997297835_" gradientUnits="userSpaceOnUse" x1="1282.2965" y1="394" x2="1521" y2="394">
		<stop  offset="0" style="stop-color:#E24E25"/>
		<stop  offset="0.517" style="stop-color:#E32F25"/>
		<stop  offset="1" style="stop-color:#E32F25"/>
	</linearGradient>
	<path style="fill:url(#SVGID_00000147898798537299796710000016348024667997297835_);" d="M1493,422h-182.7c-15.5,0-28-12.5-28-28v0
		c0-15.5,12.5-28,28-28H1493c15.5,0,28,12.5,28,28v0C1521,409.5,1508.5,422,1493,422z"/>
	<g>
		<path class="st3" d="M1352.9,393.6v8.5h-4.3v-7.8c0-2.4-1.1-3.5-2.8-3.5c-1.9,0-3.3,1.2-3.3,3.9v7.5h-4.3v-7.8
			c0-2.4-1-3.5-2.8-3.5c-1.9,0-3.3,1.2-3.3,3.9v7.5h-4.3v-14.9h4.1v1.7c1.1-1.3,2.8-1.9,4.7-1.9c2.1,0,3.8,0.8,4.9,2.4
			c1.2-1.5,3.1-2.4,5.4-2.4C1350.3,387,1352.9,389,1352.9,393.6z"/>
		<path class="st3" d="M1369.9,393.6v8.5h-4v-1.9c-0.8,1.4-2.3,2.1-4.5,2.1c-3.5,0-5.6-1.9-5.6-4.5c0-2.6,1.9-4.4,6.4-4.4h3.4
			c0-1.9-1.1-2.9-3.4-2.9c-1.6,0-3.2,0.5-4.3,1.4l-1.5-3c1.6-1.2,4-1.8,6.4-1.8C1367.2,387,1369.9,389.1,1369.9,393.6z
			 M1365.6,397.4v-1.5h-3c-2,0-2.7,0.7-2.7,1.7c0,1.1,0.9,1.8,2.4,1.8C1363.8,399.4,1365.1,398.7,1365.6,397.4z"/>
		<path class="st3" d="M1383,387v4c-0.4,0-0.6-0.1-1-0.1c-2.4,0-3.9,1.3-3.9,4.1v7h-4.3v-14.9h4.1v2
			C1378.9,387.7,1380.7,387,1383,387z"/>
		<path class="st3" d="M1391.9,396.2l-2.1,2v3.8h-4.3v-20.5h4.3v11.6l6.3-6h5.1l-6.2,6.3l6.7,8.6h-5.2L1391.9,396.2z"/>
		<path class="st3" d="M1417.6,395.9h-11.2c0.4,1.9,2,3,4.3,3c1.6,0,2.7-0.5,3.7-1.4l2.3,2.5c-1.4,1.6-3.5,2.4-6.1,2.4
			c-5.1,0-8.5-3.2-8.5-7.7c0-4.4,3.4-7.7,7.9-7.7c4.4,0,7.7,2.9,7.7,7.7C1417.7,395,1417.6,395.5,1417.6,395.9z M1406.3,393.3h7.3
			c-0.3-1.9-1.7-3.1-3.6-3.1C1408,390.2,1406.6,391.4,1406.3,393.3z"/>
		<path class="st3" d="M1430.2,401.3c-0.9,0.6-2.2,0.9-3.5,0.9c-3.5,0-5.6-1.8-5.6-5.3v-6.1h-2.3v-3.3h2.3v-3.6h4.3v3.6h3.7v3.3
			h-3.7v6c0,1.3,0.7,2,1.9,2c0.6,0,1.3-0.2,1.7-0.6L1430.2,401.3z"/>
		<path class="st3" d="M1432.1,382.7c0-1.4,1.1-2.4,2.7-2.4s2.7,1,2.7,2.3c0,1.4-1.1,2.5-2.7,2.5S1432.1,384.1,1432.1,382.7z
			 M1432.6,387.2h4.3v14.9h-4.3V387.2z"/>
		<path class="st3" d="M1456.1,393.6v8.5h-4.3v-7.8c0-2.4-1.1-3.5-3-3.5c-2.1,0-3.6,1.3-3.6,4v7.3h-4.3v-14.9h4.1v1.7
			c1.2-1.3,2.9-2,4.9-2C1453.4,387,1456.1,389,1456.1,393.6z"/>
		<path class="st3" d="M1475.5,387.2v12.4c0,5.5-3,8.1-8.3,8.1c-2.8,0-5.6-0.7-7.3-2l1.7-3.1c1.3,1,3.3,1.7,5.2,1.7
			c3,0,4.4-1.4,4.4-4.1v-0.6c-1.1,1.2-2.8,1.9-4.7,1.9c-4.1,0-7.4-2.8-7.4-7.2c0-4.3,3.3-7.2,7.4-7.2c2.1,0,3.8,0.7,4.9,2.1v-1.9
			H1475.5z M1471.2,394.2c0-2.2-1.6-3.6-3.9-3.6s-3.9,1.5-3.9,3.6c0,2.2,1.7,3.6,3.9,3.6S1471.2,396.3,1471.2,394.2z"/>
	</g>
	
		<linearGradient id="SVGID_00000098922890432942520420000009608557916964526464_" gradientUnits="userSpaceOnUse" x1="1009.8694" y1="144" x2="1360.5729" y2="144">
		<stop  offset="0" style="stop-color:#E24E25"/>
		<stop  offset="0.517" style="stop-color:#E32F25"/>
		<stop  offset="1" style="stop-color:#E32F25"/>
	</linearGradient>
	<path style="fill:url(#SVGID_00000098922890432942520420000009608557916964526464_);" d="M1332.6,172h-294.7c-15.5,0-28-12.5-28-28
		v0c0-15.5,12.5-28,28-28h294.7c15.5,0,28,12.5,28,28v0C1360.6,159.5,1348,172,1332.6,172z"/>
	<g>
		<path class="st3" d="M1053,150.7l1.4-3.1c1.3,0.9,3.3,1.4,5.2,1.4c2,0,2.7-0.5,2.7-1.4c0-2.4-9,0.1-9-5.9c0-2.8,2.5-4.8,6.9-4.8
			c2,0,4.3,0.5,5.7,1.3l-1.4,3.1c-1.5-0.8-2.9-1.1-4.3-1.1c-1.9,0-2.8,0.6-2.8,1.4c0,2.5,9,0.1,9,5.9c0,2.8-2.6,4.7-7,4.7
			C1056.9,152.3,1054.3,151.6,1053,150.7z"/>
		<path class="st3" d="M1078.6,151.3c-0.9,0.6-2.2,0.9-3.5,0.9c-3.5,0-5.6-1.8-5.6-5.3v-6.1h-2.3v-3.3h2.3v-3.6h4.3v3.6h3.7v3.3
			h-3.7v6c0,1.3,0.7,2,1.9,2c0.6,0,1.3-0.2,1.7-0.6L1078.6,151.3z"/>
		<path class="st3" d="M1090.3,137v4c-0.4,0-0.6-0.1-1-0.1c-2.4,0-3.9,1.3-3.9,4.1v7h-4.3v-14.9h4.1v2
			C1086.2,137.7,1088,137,1090.3,137z"/>
		<path class="st3" d="M1105.9,143.6v8.5h-4v-1.9c-0.8,1.4-2.3,2.1-4.5,2.1c-3.5,0-5.6-1.9-5.6-4.5c0-2.6,1.9-4.4,6.4-4.4h3.4
			c0-1.9-1.1-2.9-3.4-2.9c-1.6,0-3.2,0.5-4.3,1.4l-1.5-3c1.6-1.2,4-1.8,6.4-1.8C1103.3,137,1105.9,139.1,1105.9,143.6z
			 M1101.6,147.4v-1.5h-3c-2,0-2.7,0.7-2.7,1.7c0,1.1,0.9,1.8,2.4,1.8C1099.9,149.4,1101.1,148.7,1101.6,147.4z"/>
		<path class="st3" d="M1119.4,151.3c-0.9,0.6-2.2,0.9-3.5,0.9c-3.5,0-5.6-1.8-5.6-5.3v-6.1h-2.3v-3.3h2.3v-3.6h4.3v3.6h3.7v3.3
			h-3.7v6c0,1.3,0.7,2,1.9,2c0.6,0,1.3-0.2,1.7-0.6L1119.4,151.3z"/>
		<path class="st3" d="M1135.8,145.9h-11.2c0.4,1.9,2,3,4.3,3c1.6,0,2.7-0.5,3.7-1.4l2.3,2.5c-1.4,1.6-3.5,2.4-6.1,2.4
			c-5.1,0-8.5-3.2-8.5-7.7c0-4.4,3.4-7.7,7.9-7.7c4.4,0,7.7,2.9,7.7,7.7C1135.9,145,1135.9,145.5,1135.8,145.9z M1124.5,143.3h7.3
			c-0.3-1.9-1.7-3.1-3.6-3.1C1126.2,140.2,1124.8,141.4,1124.5,143.3z"/>
		<path class="st3" d="M1154.1,137.2v12.4c0,5.5-3,8.1-8.3,8.1c-2.8,0-5.6-0.7-7.3-2l1.7-3.1c1.3,1,3.3,1.7,5.2,1.7
			c3,0,4.4-1.4,4.4-4.1v-0.6c-1.1,1.2-2.8,1.9-4.7,1.9c-4.1,0-7.4-2.8-7.4-7.2c0-4.3,3.3-7.2,7.4-7.2c2.1,0,3.8,0.7,4.9,2.1v-1.9
			H1154.1z M1149.9,144.2c0-2.2-1.6-3.6-3.9-3.6s-3.9,1.5-3.9,3.6c0,2.2,1.7,3.6,3.9,3.6S1149.9,146.3,1149.9,144.2z"/>
		<path class="st3" d="M1157.6,132.7c0-1.4,1.1-2.4,2.7-2.4c1.6,0,2.7,1,2.7,2.3c0,1.4-1.1,2.5-2.7,2.5
			C1158.7,135.1,1157.6,134.1,1157.6,132.7z M1158.1,137.2h4.3v14.9h-4.3V137.2z"/>
		<path class="st3" d="M1165.3,144.6c0-4.5,3.5-7.7,8.3-7.7c3.1,0,5.6,1.4,6.7,3.8l-3.3,1.8c-0.8-1.4-2-2-3.3-2
			c-2.2,0-3.9,1.5-3.9,4.1c0,2.6,1.7,4.1,3.9,4.1c1.4,0,2.5-0.6,3.3-2l3.3,1.8c-1.1,2.4-3.5,3.8-6.7,3.8
			C1168.8,152.3,1165.3,149.1,1165.3,144.6z"/>
		<path class="st3" d="M1206.7,144.6c0,4.7-3.2,7.7-7.4,7.7c-1.9,0-3.4-0.6-4.5-1.8v6.9h-4.3v-20.2h4.1v1.7c1.1-1.3,2.7-1.9,4.7-1.9
			C1203.5,137,1206.7,140,1206.7,144.6z M1202.4,144.6c0-2.6-1.6-4.1-3.8-4.1s-3.8,1.5-3.8,4.1s1.6,4.1,3.8,4.1
			S1202.4,147.2,1202.4,144.6z"/>
		<path class="st3" d="M1209.6,131.6h4.3v20.5h-4.3V131.6z"/>
		<path class="st3" d="M1231.1,143.6v8.5h-4v-1.9c-0.8,1.4-2.3,2.1-4.5,2.1c-3.5,0-5.6-1.9-5.6-4.5c0-2.6,1.9-4.4,6.4-4.4h3.4
			c0-1.9-1.1-2.9-3.4-2.9c-1.6,0-3.2,0.5-4.3,1.4l-1.5-3c1.6-1.2,4-1.8,6.4-1.8C1228.5,137,1231.1,139.1,1231.1,143.6z
			 M1226.8,147.4v-1.5h-3c-2,0-2.7,0.7-2.7,1.7c0,1.1,0.9,1.8,2.4,1.8C1225,149.4,1226.3,148.7,1226.8,147.4z"/>
		<path class="st3" d="M1250.2,143.6v8.5h-4.3v-7.8c0-2.4-1.1-3.5-3-3.5c-2.1,0-3.6,1.3-3.6,4v7.3h-4.3v-14.9h4.1v1.7
			c1.2-1.3,2.9-2,4.9-2C1247.5,137,1250.2,139,1250.2,143.6z"/>
		<path class="st3" d="M1269.2,143.6v8.5h-4.3v-7.8c0-2.4-1.1-3.5-3-3.5c-2.1,0-3.6,1.3-3.6,4v7.3h-4.3v-14.9h4.1v1.7
			c1.2-1.3,2.9-2,4.9-2C1266.6,137,1269.2,139,1269.2,143.6z"/>
		<path class="st3" d="M1272.6,132.7c0-1.4,1.1-2.4,2.7-2.4c1.6,0,2.7,1,2.7,2.3c0,1.4-1.1,2.5-2.7,2.5
			C1273.7,135.1,1272.6,134.1,1272.6,132.7z M1273.1,137.2h4.3v14.9h-4.3V137.2z"/>
		<path class="st3" d="M1296.6,143.6v8.5h-4.3v-7.8c0-2.4-1.1-3.5-3-3.5c-2.1,0-3.6,1.3-3.6,4v7.3h-4.3v-14.9h4.1v1.7
			c1.2-1.3,2.9-2,4.9-2C1294,137,1296.6,139,1296.6,143.6z"/>
		<path class="st3" d="M1316,137.2v12.4c0,5.5-3,8.1-8.3,8.1c-2.8,0-5.6-0.7-7.3-2l1.7-3.1c1.3,1,3.3,1.7,5.2,1.7
			c3,0,4.4-1.4,4.4-4.1v-0.6c-1.1,1.2-2.8,1.9-4.7,1.9c-4.1,0-7.4-2.8-7.4-7.2c0-4.3,3.3-7.2,7.4-7.2c2.1,0,3.8,0.7,4.9,2.1v-1.9
			H1316z M1311.8,144.2c0-2.2-1.6-3.6-3.9-3.6s-3.9,1.5-3.9,3.6c0,2.2,1.7,3.6,3.9,3.6S1311.8,146.3,1311.8,144.2z"/>
	</g>
	
		<linearGradient id="SVGID_00000112628119845180350380000011752225445328186556_" gradientUnits="userSpaceOnUse" x1="54.3885" y1="508" x2="405.092" y2="508">
		<stop  offset="0" style="stop-color:#E24E25"/>
		<stop  offset="0.517" style="stop-color:#E32F25"/>
		<stop  offset="1" style="stop-color:#E32F25"/>
	</linearGradient>
	<path style="fill:url(#SVGID_00000112628119845180350380000011752225445328186556_);" d="M377.1,536H82.4c-15.5,0-28-12.5-28-28v0
		c0-15.5,12.5-28,28-28h294.7c15.5,0,28,12.5,28,28v0C405.1,523.5,392.6,536,377.1,536z"/>
	<g>
		<path class="st3" d="M112.8,501v4c-0.4,0-0.6-0.1-1-0.1c-2.4,0-3.9,1.3-3.9,4.1v7h-4.3v-14.9h4.1v2
			C108.7,501.7,110.5,501,112.8,501z"/>
		<path class="st3" d="M129.7,509.9h-11.2c0.4,1.9,2,3,4.3,3c1.6,0,2.7-0.5,3.7-1.4l2.3,2.5c-1.4,1.6-3.5,2.4-6.1,2.4
			c-5.1,0-8.5-3.2-8.5-7.7c0-4.4,3.4-7.7,7.9-7.7c4.4,0,7.7,2.9,7.7,7.7C129.8,509,129.7,509.5,129.7,509.9z M118.4,507.3h7.3
			c-0.3-1.9-1.7-3.1-3.6-3.1C120.1,504.2,118.7,505.4,118.4,507.3z"/>
		<path class="st3" d="M148.8,508.6c0,4.7-3.2,7.7-7.4,7.7c-1.9,0-3.4-0.6-4.5-1.8v6.9h-4.3v-20.2h4.1v1.7c1.1-1.3,2.7-1.9,4.7-1.9
			C145.6,501,148.8,504,148.8,508.6z M144.5,508.6c0-2.6-1.6-4.1-3.8-4.1s-3.8,1.5-3.8,4.1s1.6,4.1,3.8,4.1S144.5,511.2,144.5,508.6
			z"/>
		<path class="st3" d="M150.6,508.6c0-4.5,3.5-7.7,8.2-7.7c4.7,0,8.1,3.2,8.1,7.7c0,4.5-3.4,7.7-8.1,7.7
			C154,516.3,150.6,513.1,150.6,508.6z M162.5,508.6c0-2.6-1.6-4.1-3.8-4.1c-2.2,0-3.8,1.5-3.8,4.1s1.7,4.1,3.8,4.1
			C160.9,512.7,162.5,511.2,162.5,508.6z"/>
		<path class="st3" d="M179,501v4c-0.4,0-0.6-0.1-1-0.1c-2.4,0-4,1.3-4,4.1v7h-4.3v-14.9h4.1v2C174.9,501.7,176.7,501,179,501z"/>
		<path class="st3" d="M191.7,515.3c-0.9,0.6-2.2,0.9-3.5,0.9c-3.5,0-5.6-1.8-5.6-5.3v-6.1h-2.3v-3.3h2.3v-3.6h4.3v3.6h3.7v3.3h-3.7
			v6c0,1.3,0.7,2,1.9,2c0.6,0,1.3-0.2,1.7-0.6L191.7,515.3z"/>
		<path class="st3" d="M192.7,514.7l1.4-3.1c1.3,0.9,3.3,1.4,5.2,1.4c2,0,2.7-0.5,2.7-1.4c0-2.4-9,0.1-9-5.9c0-2.8,2.5-4.8,6.9-4.8
			c2,0,4.3,0.5,5.7,1.3l-1.4,3.1c-1.5-0.8-2.9-1.1-4.3-1.1c-1.9,0-2.8,0.6-2.8,1.4c0,2.5,9,0.1,9,5.9c0,2.8-2.6,4.7-7,4.7
			C196.6,516.3,194,515.6,192.7,514.7z"/>
		<path class="st3" d="M231.7,516.4l-2.3-2.2c-1.8,1.4-4,2.2-6.5,2.2c-4.3,0-7.4-2.2-7.4-5.3c0-2.4,1.3-4.1,4.3-5.8
			c-1.4-1.5-2-2.7-2-4.1c0-2.8,2.4-4.8,6-4.8c3.3,0,5.6,1.7,5.6,4.4c0,2-1.2,3.5-3.8,4.9l3.5,3.3c0.4-0.9,0.7-1.9,1-3l3.5,1.1
			c-0.4,1.7-0.9,3.1-1.8,4.4l2.3,2.1L231.7,516.4z M226.9,511.9l-4.7-4.4c-1.8,1-2.4,1.9-2.4,3.1c0,1.4,1.3,2.4,3.5,2.4
			C224.6,513,225.8,512.6,226.9,511.9z M221.8,501.2c0,0.7,0.3,1.3,1.5,2.5c1.9-1,2.5-1.7,2.5-2.6c0-0.9-0.7-1.6-1.9-1.6
			C222.5,499.4,221.8,500.2,221.8,501.2z"/>
		<path class="st3" d="M257.6,507.6v8.5h-4v-1.9c-0.8,1.4-2.3,2.1-4.5,2.1c-3.5,0-5.6-1.9-5.6-4.5c0-2.6,1.9-4.4,6.4-4.4h3.4
			c0-1.9-1.1-2.9-3.4-2.9c-1.6,0-3.2,0.5-4.3,1.4l-1.5-3c1.6-1.2,4-1.8,6.4-1.8C255,501,257.6,503.1,257.6,507.6z M253.3,511.4v-1.5
			h-3c-2,0-2.7,0.7-2.7,1.7c0,1.1,0.9,1.8,2.4,1.8C251.6,513.4,252.8,512.7,253.3,511.4z"/>
		<path class="st3" d="M276.7,507.6v8.5h-4.3v-7.8c0-2.4-1.1-3.5-3-3.5c-2.1,0-3.6,1.3-3.6,4v7.3h-4.3v-14.9h4.1v1.7
			c1.2-1.3,2.9-2,4.9-2C274.1,501,276.7,503,276.7,507.6z"/>
		<path class="st3" d="M293.8,507.6v8.5h-4v-1.9c-0.8,1.4-2.3,2.1-4.5,2.1c-3.5,0-5.6-1.9-5.6-4.5c0-2.6,1.9-4.4,6.4-4.4h3.4
			c0-1.9-1.1-2.9-3.4-2.9c-1.6,0-3.2,0.5-4.3,1.4l-1.5-3c1.6-1.2,4-1.8,6.4-1.8C291.1,501,293.8,503.1,293.8,507.6z M289.5,511.4
			v-1.5h-3c-2,0-2.7,0.7-2.7,1.7c0,1.1,0.9,1.8,2.4,1.8C287.7,513.4,289,512.7,289.5,511.4z"/>
		<path class="st3" d="M297.7,495.6h4.3v20.5h-4.3V495.6z"/>
		<path class="st3" d="M320.7,501.2L314,517c-1.4,3.6-3.5,4.7-6.2,4.7c-1.5,0-3.2-0.5-4.1-1.4l1.6-3.1c0.7,0.6,1.6,0.9,2.4,0.9
			c1.2,0,1.9-0.5,2.4-1.8l0.1-0.1l-6.4-15h4.4l4.2,10.1l4.2-10.1H320.7z"/>
		<path class="st3" d="M320.8,514.7l1.4-3.1c1.3,0.9,3.3,1.4,5.2,1.4c2,0,2.7-0.5,2.7-1.4c0-2.4-9,0.1-9-5.9c0-2.8,2.5-4.8,6.9-4.8
			c2,0,4.3,0.5,5.7,1.3l-1.4,3.1c-1.5-0.8-2.9-1.1-4.3-1.1c-1.9,0-2.8,0.6-2.8,1.4c0,2.5,9,0.1,9,5.9c0,2.8-2.6,4.7-7,4.7
			C324.8,516.3,322.2,515.6,320.8,514.7z"/>
		<path class="st3" d="M336.4,496.7c0-1.4,1.1-2.4,2.7-2.4s2.7,1,2.7,2.3c0,1.4-1.1,2.5-2.7,2.5S336.4,498.1,336.4,496.7z
			 M336.9,501.2h4.3v14.9h-4.3V501.2z"/>
		<path class="st3" d="M343.8,514.7l1.4-3.1c1.3,0.9,3.3,1.4,5.2,1.4c2,0,2.7-0.5,2.7-1.4c0-2.4-9,0.1-9-5.9c0-2.8,2.5-4.8,6.9-4.8
			c2,0,4.3,0.5,5.7,1.3l-1.4,3.1c-1.5-0.8-2.9-1.1-4.3-1.1c-1.9,0-2.8,0.6-2.8,1.4c0,2.5,9,0.1,9,5.9c0,2.8-2.6,4.7-7,4.7
			C347.7,516.3,345.2,515.6,343.8,514.7z"/>
	</g>
	
		<linearGradient id="SVGID_00000163053595503389660580000000167667272577724033_" gradientUnits="userSpaceOnUse" x1="236.9944" y1="896" x2="437.2136" y2="896">
		<stop  offset="0" style="stop-color:#E24E25"/>
		<stop  offset="0.517" style="stop-color:#E32F25"/>
		<stop  offset="1" style="stop-color:#E32F25"/>
	</linearGradient>
	<path style="fill:url(#SVGID_00000163053595503389660580000000167667272577724033_);" d="M409.2,924H265c-15.5,0-28-12.5-28-28l0,0
		c0-15.5,12.5-28,28-28h144.2c15.5,0,28,12.5,28,28l0,0C437.2,911.5,424.7,924,409.2,924z"/>
	<g>
		<path class="st3" d="M280.6,902.7l1.4-3.1c1.3,0.9,3.3,1.4,5.2,1.4c2,0,2.7-0.5,2.7-1.4c0-2.4-9,0.1-9-5.9c0-2.8,2.5-4.8,6.9-4.8
			c2,0,4.3,0.5,5.7,1.3l-1.4,3.1c-1.5-0.8-2.9-1.1-4.3-1.1c-1.9,0-2.8,0.6-2.8,1.4c0,2.5,9,0.1,9,5.9c0,2.8-2.6,4.7-7,4.7
			C284.5,904.3,282,903.6,280.6,902.7z"/>
		<path class="st3" d="M311.6,889.2v14.9h-4.1v-1.8c-1.1,1.3-2.8,2-4.6,2c-3.7,0-6.4-2.1-6.4-6.7v-8.4h4.3v7.8c0,2.5,1.1,3.6,3,3.6
			c2,0,3.4-1.3,3.4-4v-7.3H311.6z"/>
		<path class="st3" d="M331.8,896.6c0,4.7-3.2,7.7-7.4,7.7c-1.9,0-3.4-0.6-4.5-1.8v6.9h-4.3v-20.2h4.1v1.7c1.1-1.3,2.7-1.9,4.7-1.9
			C328.6,889,331.8,892,331.8,896.6z M327.5,896.6c0-2.6-1.6-4.1-3.8-4.1s-3.8,1.5-3.8,4.1s1.6,4.1,3.8,4.1S327.5,899.2,327.5,896.6
			z"/>
		<path class="st3" d="M350.9,896.6c0,4.7-3.2,7.7-7.4,7.7c-1.9,0-3.4-0.6-4.5-1.8v6.9h-4.3v-20.2h4.1v1.7c1.1-1.3,2.7-1.9,4.7-1.9
			C347.7,889,350.9,892,350.9,896.6z M346.5,896.6c0-2.6-1.6-4.1-3.8-4.1s-3.8,1.5-3.8,4.1s1.6,4.1,3.8,4.1S346.5,899.2,346.5,896.6
			z"/>
		<path class="st3" d="M352.7,896.6c0-4.5,3.5-7.7,8.2-7.7c4.7,0,8.1,3.2,8.1,7.7c0,4.5-3.4,7.7-8.1,7.7
			C356.1,904.3,352.7,901.1,352.7,896.6z M364.6,896.6c0-2.6-1.6-4.1-3.8-4.1c-2.2,0-3.8,1.5-3.8,4.1s1.7,4.1,3.8,4.1
			C363,900.8,364.6,899.2,364.6,896.6z"/>
		<path class="st3" d="M381.1,889v4c-0.4,0-0.6-0.1-1-0.1c-2.4,0-3.9,1.3-3.9,4.1v7h-4.3v-14.9h4.1v2C377,889.7,378.8,889,381.1,889
			z"/>
		<path class="st3" d="M393.7,903.3c-0.9,0.6-2.2,0.9-3.5,0.9c-3.5,0-5.6-1.8-5.6-5.3v-6.1h-2.3v-3.3h2.3v-3.6h4.3v3.6h3.7v3.3H389
			v6c0,1.3,0.7,2,1.9,2c0.6,0,1.3-0.2,1.7-0.6L393.7,903.3z"/>
	</g>
	<g>
		
			<linearGradient id="SVGID_00000116218022013773664100000009866572668379421611_" gradientUnits="userSpaceOnUse" x1="549.1797" y1="1308.7095" x2="724.3073" y2="1189.7285" gradientTransform="matrix(0.9783 -0.2072 -0.2072 -0.9783 178.0039 2122.0015)">
			<stop  offset="0" style="stop-color:#E24E25"/>
			<stop  offset="0.517" style="stop-color:#E32F25"/>
			<stop  offset="1" style="stop-color:#E32F25"/>
		</linearGradient>
		<circle style="fill:url(#SVGID_00000116218022013773664100000009866572668379421611_);" cx="525.2" cy="761" r="105.9"/>
		<path class="st41" d="M542.9,836.2l-3.4,0.7c-26.5,5.6-52.5-11.3-58.1-37.8l0,0c-1.3-6,2.5-11.8,8.5-13.1l77.6-16.4
			c6-1.3,11.8,2.5,13.1,8.5l0,0C586.3,804.6,569.4,830.6,542.9,836.2z"/>
		<path class="st41" d="M511.3,695.5c-19.1,4-31.3,22.8-27.2,41.9c1.2,5.7,3.7,10.8,7.2,15l15.6-3.3c-0.1-2.7,1.8-5.3,4.5-5.8
			l11.2-2.4c3.1-0.7,6.1,1.3,6.8,4.4s-1.3,6.1-4.4,6.8l-4.9,1l-6.3,1.3l-16.7,3.5c7.9,6.1,18.4,8.8,28.9,6.6
			c19.1-4,31.3-22.8,27.2-41.9C549.1,703.7,530.4,691.4,511.3,695.5z"/>
		<path class="st41" d="M469.2,723.7c-5,1.8-8,7.1-6.9,12.5l2.4,11.1c1.2,5.9,7,9.6,12.9,8.4l0,0c2.2-0.5,3.6-2.6,3.1-4.8l-5.2-24.4
			c-0.1-0.4-0.2-0.7-0.4-1c-3.2-18.1,7.8-35.5,24.9-39.1l-1.2-5.5C479.6,684.9,467,703.6,469.2,723.7z"/>
		<g class="st42">
			<path d="M503.3,657.5c57.2-12.1,113.4,24.4,125.5,81.6s-24.4,113.4-81.6,125.5c-57.2,12.1-113.4-24.4-125.5-81.6
				S446.1,669.6,503.3,657.5 M502.6,654.1c-14.4,3.1-27.8,8.9-39.9,17.2c-11.6,8.1-21.4,18.2-29.1,30.1c-7.7,11.9-13,25-15.7,38.8
				c-2.8,14.4-2.6,29,0.4,43.4c3.1,14.4,8.9,27.8,17.2,39.9c8.1,11.6,18.2,21.4,30.1,29.1c11.9,7.7,25,13,38.8,15.7
				c14.4,2.8,29,2.6,43.4-0.4c14.4-3.1,27.8-8.9,39.9-17.2c11.6-8.1,21.4-18.2,29.1-30.1c7.7-11.9,13-25,15.7-38.8
				c2.8-14.4,2.6-29-0.4-43.4c-3.1-14.4-8.9-27.8-17.2-39.9c-8.1-11.6-18.2-21.4-30.1-29.1c-11.9-7.7-25-13-38.8-15.7
				C531.6,650.9,517,651,502.6,654.1L502.6,654.1z"/>
		</g>
		<g class="st43">
			<path d="M503.3,657.5c57.2-12.1,113.4,24.4,125.5,81.6s-24.4,113.4-81.6,125.5c-57.2,12.1-113.4-24.4-125.5-81.6
				S446.1,669.6,503.3,657.5 M501.7,649.9c-15,3.2-29,9.2-41.4,17.9c-12.1,8.4-22.2,18.9-30.3,31.3s-13.5,26-16.3,40.4
				c-2.9,14.9-2.8,30.1,0.4,45.1c3.2,15,9.2,29,17.9,41.4c8.4,12.1,18.9,22.2,31.3,30.3s26,13.5,40.4,16.3
				c14.9,2.9,30.1,2.8,45.1-0.4c15-3.2,29-9.2,41.4-17.9c12.1-8.4,22.2-18.9,30.3-31.3c8.1-12.4,13.5-26,16.3-40.4
				c2.9-14.9,2.8-30.1-0.4-45.1c-3.2-15-9.2-29-17.9-41.4c-8.4-12.1-18.9-22.2-31.3-30.3c-12.4-8.1-26-13.5-40.4-16.3
				C531.9,646.6,516.7,646.7,501.7,649.9L501.7,649.9z"/>
		</g>
		<g>
			
				<radialGradient id="SVGID_00000073712227330951104090000009215673876927747244_" cx="875.3073" cy="1133.049" r="13.2044" gradientTransform="matrix(4.8915 -1.0358 -1.0358 -4.8915 -2464.2566 7215.5547)" gradientUnits="userSpaceOnUse">
				<stop  offset="0.77" style="stop-color:#787F85"/>
				<stop  offset="0.82" style="stop-color:#838A91"/>
				<stop  offset="0.93" style="stop-color:#99A1AA"/>
				<stop  offset="1" style="stop-color:#A1AAB3"/>
			</radialGradient>
			<path style="fill:url(#SVGID_00000073712227330951104090000009215673876927747244_);" d="M603.4,790l40,26l-34.8,53.4
				c-7.2,11.1-22,14.2-33,7l0,0l0,0c-11.1-7.2-14.2-22-7-33L603.4,790z"/>
			
				<linearGradient id="SVGID_00000073002640878135165420000009712952210399767178_" gradientUnits="userSpaceOnUse" x1="867.8635" y1="1140.3044" x2="882.9305" y2="1125.2256" gradientTransform="matrix(4.8915 -1.0358 -1.0358 -4.8915 -2464.2566 7215.5547)">
				<stop  offset="0" style="stop-color:#A1AAB3"/>
				<stop  offset="1" style="stop-color:#8F979E"/>
			</linearGradient>
			<path style="fill:url(#SVGID_00000073002640878135165420000009712952210399767178_);" d="M674.8,765c-7,10.2-20.9,12.9-31.1,5.9
				c-9.9-6.8-12.7-20.1-6.4-30.3l15-23.1c1.2-1.8,0.7-4.2-1.1-5.3c-0.6-0.4-1.2-0.6-1.9-0.6c-7.6-0.2-15.2,1.1-22.3,4.1
				c-27.6,11.4-40.7,43.1-29.2,70.7c11.4,27.6,43.1,40.7,70.7,29.2c20.7-8.6,33.9-29,33.3-51.3c-0.2-7.6-2-15.1-5.3-22.1
				c-1-1.9-3.3-2.7-5.2-1.7c-0.6,0.3-1.1,0.8-1.5,1.3L674.8,765z"/>
			
				<linearGradient id="SVGID_00000020392553708235127850000001501833580089926060_" gradientUnits="userSpaceOnUse" x1="862.8156" y1="1115.4678" x2="858.4854" y2="1119.8099" gradientTransform="matrix(4.8915 -1.0358 -1.0358 -4.8915 -2464.2566 7215.5547)">
				<stop  offset="0" style="stop-color:#FFFFFF"/>
				<stop  offset="0.24" style="stop-color:#F2F2F2"/>
				<stop  offset="1" style="stop-color:#CCCCCC"/>
			</linearGradient>
			<circle style="fill:url(#SVGID_00000020392553708235127850000001501833580089926060_);" cx="588.1" cy="857.2" r="15.4"/>
			<circle class="st47" cx="588.1" cy="857.2" r="7.7"/>
		</g>
	</g>
	
		<linearGradient id="SVGID_00000116920431363983137890000007826507933581777064_" gradientUnits="userSpaceOnUse" x1="683.4879" y1="529.9038" x2="1025.0848" y2="529.9038">
		<stop  offset="0" style="stop-color:#E24E25"/>
		<stop  offset="0.517" style="stop-color:#E32F25"/>
		<stop  offset="1" style="stop-color:#E32F25"/>
	</linearGradient>
	<circle style="fill:url(#SVGID_00000116920431363983137890000007826507933581777064_);" cx="854.3" cy="529.9" r="170.8"/>
	<g>
		<path class="st3" d="M744,529.9c0-20.2,15.5-34.7,36.4-34.7c11.6,0,21.3,4.2,27.6,11.9l-10,9.2c-4.5-5.2-10.2-7.9-16.9-7.9
			c-12.6,0-21.5,8.8-21.5,21.5c0,12.7,8.9,21.5,21.5,21.5c6.7,0,12.4-2.7,16.9-8l10,9.2c-6.3,7.8-16,12-27.7,12
			C759.5,564.6,744,550.1,744,529.9z"/>
		<path class="st3" d="M861.2,563.5l-12.9-18.7h-0.8H834v18.7h-15.5v-67.1h29c17.9,0,29.1,9.3,29.1,24.3c0,10.1-5.1,17.4-13.8,21.2
			l15,21.6H861.2z M846.7,509H834v23.4h12.7c9.5,0,14.3-4.4,14.3-11.7C860.9,513.3,856.2,509,846.7,509z"/>
		<path class="st3" d="M950,563.5l-0.1-40.3l-19.7,33.2h-7l-19.7-32.3v39.4h-14.6v-67.1h12.8l25.1,41.7l24.7-41.7h12.7l0.2,67.1H950
			z"/>
	</g>
	<path class="st12" d="M956.6,143.8l7.8-39.4l5.6-28.1c1.2-6.2-2.8-12.2-9-13.5l-16.9-3.3l0,0.1c-0.4-0.1-0.8-0.2-1.2-0.3
		L786.7,28.4c-6.9-1.4-13.5,2.6-14.7,8.8l-37.8,191.2c-1.2,6.2,3.4,12.4,10.3,13.7l88.4,17.5c4.1,18.7,15.9,35.5,34,45.3
		c32.9,17.7,74,5.4,91.7-27.5c14.7-27.3,8.7-60.2-12.5-80.7l1.6-7.9L956.6,143.8z"/>
	<g class="st43">
		<path class="st49" d="M1249.2,319.2c-3.4-14.6-17.7-23.7-32.3-20.9l-12-51.2c-1.2-5-6.2-8.2-11.3-7l-4.3,1c-5,1.2-8.2,6.2-7,11.3
			l0.9,3.8c-1.4,21.1-17.1,40.3-38.5,45.7l-41.1,9.6l0,0.1l-39.5,9.2l0,0c-16.9,4-27.3,20.8-23.4,37.7l3.4,14.4c0,0,0,0,0,0
			c3.9,16.9,20.8,27.4,37.7,23.5l7.9-1.8l14.5,62.2c2.6,11,13.6,17.8,24.6,15.3l6.1-1.4c3.2-0.7,5.2-3.9,4.4-7.1l-17.9-76.5l0,0l0,0
			l40.9-9.6c22.6-5,45.2,5.7,55.1,25.5l0.8,3.6c1.2,5,6.2,8.2,11.3,7l4.3-1c5-1.2,8.2-6.2,7-11.3l-11.5-49.1
			C1243.8,348.3,1252.6,333.7,1249.2,319.2z"/>
		<polygon class="st49" points="1121.6,387 1121.6,387 1121.6,387 		"/>
		<path class="st49" d="M1131.2,415.6c5.8-1.4,9.4-7.2,8-13l-4.4-18.7l-13.3,3.1l6.8,29.2L1131.2,415.6z"/>
	</g>
	<g class="st42">
		<path class="st50" d="M1249.2,319.2c-3.4-14.6-17.7-23.7-32.3-20.9l-12-51.2c-1.2-5-6.2-8.2-11.3-7l-4.3,1c-5,1.2-8.2,6.2-7,11.3
			l0.9,3.8c-1.4,21.1-17.1,40.3-38.5,45.7l-41.1,9.6l0,0.1l-39.5,9.2l0,0c-16.9,4-27.3,20.8-23.4,37.7l3.4,14.4c0,0,0,0,0,0
			c3.9,16.9,20.8,27.4,37.7,23.5l7.9-1.8l14.5,62.2c2.6,11,13.6,17.8,24.6,15.3l6.1-1.4c3.2-0.7,5.2-3.9,4.4-7.1l-17.9-76.5l0,0l0,0
			l40.9-9.6c22.6-5,45.2,5.7,55.1,25.5l0.8,3.6c1.2,5,6.2,8.2,11.3,7l4.3-1c5-1.2,8.2-6.2,7-11.3l-11.5-49.1
			C1243.8,348.3,1252.6,333.7,1249.2,319.2z"/>
		<polygon class="st50" points="1121.6,387 1121.6,387 1121.6,387 		"/>
		<path class="st50" d="M1131.2,415.6c5.8-1.4,9.4-7.2,8-13l-4.4-18.7l-13.3,3.1l6.8,29.2L1131.2,415.6z"/>
	</g>
	<g class="st42">
		<g class="st51">
			
				<image style="overflow:visible;enable-background:new    ;" width="589" height="473" xlink:href="83E3F578.png"  transform="matrix(0.1343 -5.421010e-02 5.421010e-02 0.1343 1176.9547 658.9412)">
			</image>
		</g>
		<g class="st52">
			
				<image style="overflow:visible;enable-background:new    ;" width="221" height="220" xlink:href="83E3F577.png"  transform="matrix(0.1343 -5.421010e-02 5.421010e-02 0.1343 1202.012 667.6255)">
			</image>
		</g>
	</g>
	<g class="st42">
		<path class="st50" d="M1281.3,719.3l-13.9-34.3l1.2-0.5c0,0,0,0,0,0c2.4-1,3.5-3.7,2.6-6.1l-15-37.1c-1-2.4-3.7-3.6-6.1-2.6
			l-1.2,0.5l-2.2-5.5l0.1,0l-17.9-44.2c0,0,0,0,0,0c-0.8-2-3-2.9-5-2.1l-11,4.5l-8.5-9.7c-4.8-5.5-13.2-6.1-18.7-1.3l-48.2,41.5
			l-48,19.4c-6.1,2.5-9.1,9.5-6.6,15.6l0.3,0.8c0-0.1,0-0.1-0.1-0.2l8.9,22l3,7.4c0,0,0,0,0,0c0,0,0,0,0,0.1l14.9,37l-1.4,0.6
			l9,20.7l0.9-0.4l11.6,28.7c2.3,5.7,8.8,8.5,14.5,6.2c0,0,0,0,0,0l59.5-24l24.3,56l9.4-23.8c1.5-3.7,1.4-7.8-0.2-11.5l-12.6-29.2
			l53.7-21.7C1281.1,724.9,1282.3,721.9,1281.3,719.3z"/>
		<path class="st50" d="M1162.6,804.8c-0.8-0.3-1.6-0.3-2.3,0l-14.5,6.3l-37.4-86.1l-9.4,23.8c-1.5,3.7-1.4,7.8,0.2,11.5l26,59.7
			l-14.4,6.3c-1.5,0.7-2.2,2.4-1.6,4c0.3,0.7,0.9,1.3,1.7,1.6l33.1,13c2.9,1.1,6.1-0.3,7.3-3.2l13-33.1
			C1164.9,807.2,1164.1,805.4,1162.6,804.8z"/>
		<path class="st50" d="M1188.2,804.9c-1.9,0.8-2.8,3-1.9,4.9c0,0,0,0,0,0l6,13.8c0.8,1.9,3,2.8,4.9,2c0,0,0,0,0,0l31-13.5l-9-20.7
			L1188.2,804.9z"/>
	</g>
	<g>
		<g>
			
				<linearGradient id="SVGID_00000141420796643228407310000008128399749373000854_" gradientUnits="userSpaceOnUse" x1="1631.6407" y1="-1360.5496" x2="1632.1279" y2="-1411.7543" gradientTransform="matrix(0.931 -0.3698 0.3698 0.931 156.0034 2534.1338)">
				<stop  offset="0.56" style="stop-color:#D18B00"/>
				<stop  offset="0.78" style="stop-color:#D79200"/>
				<stop  offset="1" style="stop-color:#E09F00"/>
			</linearGradient>
			<path style="fill:url(#SVGID_00000141420796643228407310000008128399749373000854_);" d="M1089.4,641.6l134.5-54.3
				c2-0.8,4.2,0.1,5,2.1c0,0,0,0,0,0l0,0l17.9,44.2l0,0l-142.5,57.6c-3.7,1.5-7.9-0.3-9.4-4c0,0,0,0,0,0l-12.1-30
				C1080.3,651.1,1083.3,644.1,1089.4,641.6z"/>
			
				<linearGradient id="SVGID_00000112621688102736120510000004121178208745819270_" gradientUnits="userSpaceOnUse" x1="1643.5933" y1="-1353.584" x2="1599.8278" y2="-1455.0845" gradientTransform="matrix(0.931 -0.3698 0.3698 0.931 156.0034 2534.1338)">
				<stop  offset="0.24" style="stop-color:#662D91"/>
				<stop  offset="0.85" style="stop-color:#8764B8"/>
			</linearGradient>
			<path style="fill:url(#SVGID_00000112621688102736120510000004121178208745819270_);" d="M1087.9,664.8l97.7-84
				c5.6-4.7,13.9-4.1,18.7,1.3l31,35.2l-143.3,57.8L1087.9,664.8z"/>
			
				<linearGradient id="SVGID_00000173147200433024330120000011735295049483879615_" gradientUnits="userSpaceOnUse" x1="1606.3112" y1="-1367.8197" x2="1690.5242" y2="-1238.314" gradientTransform="matrix(0.931 -0.3698 0.3698 0.931 156.0034 2534.1338)">
				<stop  offset="0" style="stop-color:#FFD867"/>
				<stop  offset="0.46" style="stop-color:#F2C957"/>
				<stop  offset="0.66" style="stop-color:#F9C73E"/>
				<stop  offset="0.82" style="stop-color:#FEC62E"/>
			</linearGradient>
			<path style="fill:url(#SVGID_00000173147200433024330120000011735295049483879615_);" d="M1083,657.9l46.8,116.1
				c2.3,5.7,8.8,8.5,14.5,6.2c0,0,0,0,0,0l0,0l134.1-54.1c2.6-1.1,3.9-4.1,2.9-6.8L1238,612.1c-0.9-2.3-3.5-3.4-5.7-2.5c0,0,0,0,0,0
				L1097.5,664C1091.8,666.3,1085.3,663.6,1083,657.9z"/>
			<g class="st51">
				
					<image style="overflow:visible;enable-background:new    ;" width="589" height="473" xlink:href="83E3F586.png"  transform="matrix(0.1343 -5.421010e-02 5.421010e-02 0.1343 1176.9547 658.9412)">
				</image>
			</g>
			
				<linearGradient id="SVGID_00000019640671214482310180000010112140287474249883_" gradientUnits="userSpaceOnUse" x1="1681.1013" y1="-1333.6321" x2="1734.2413" y2="-1302.2566" gradientTransform="matrix(0.931 -0.3698 0.3698 0.931 156.0034 2534.1338)">
				<stop  offset="0" style="stop-color:#FFD867"/>
				<stop  offset="0.46" style="stop-color:#F2C957"/>
				<stop  offset="0.66" style="stop-color:#F9C73E"/>
				<stop  offset="0.82" style="stop-color:#FEC62E"/>
			</linearGradient>
			<path style="fill:url(#SVGID_00000019640671214482310180000010112140287474249883_);" d="M1201,658.6l49.2-19.9
				c2.4-1,5.1,0.2,6.1,2.6l15,37.1c1,2.4-0.2,5.1-2.6,6.1c0,0,0,0,0,0l-49.3,19.9c-4.6,1.8-9.8-0.4-11.7-5l-11.8-29.1
				C1194.2,665.6,1196.4,660.4,1201,658.6z"/>
			<g class="st52">
				
					<image style="overflow:visible;enable-background:new    ;" width="221" height="220" xlink:href="83E3F589.png"  transform="matrix(0.1343 -5.421010e-02 5.421010e-02 0.1343 1202.012 667.6255)">
				</image>
			</g>
			<circle class="st3" cx="1222.7" cy="676.3" r="11.1"/>
		</g>
		<g>
			<g>
				
					<linearGradient id="SVGID_00000079457445436796892860000011176603969802750399_" gradientUnits="userSpaceOnUse" x1="1639.7257" y1="1528.1481" x2="1599.6493" y2="1540.1346" gradientTransform="matrix(0.7348 -0.6783 -0.6783 -0.7348 978.938 2954.3862)">
					<stop  offset="0" style="stop-color:#11945A"/>
					<stop  offset="0.26" style="stop-color:#109258"/>
					<stop  offset="0.41" style="stop-color:#0E8952"/>
					<stop  offset="0.54" style="stop-color:#0B7B47"/>
					<stop  offset="0.81" style="stop-color:#08703E"/>
				</linearGradient>
				<path style="fill:url(#SVGID_00000079457445436796892860000011176603969802750399_);" d="M1117.4,745.6l31-13.5
					c1.9-0.8,2.8-3,2-4.9l-6-13.8c-0.8-1.9-3-2.8-4.9-2c0,0,0,0,0,0l-31,13.5L1117.4,745.6z"/>
				<path class="st58" d="M1160.3,804.8l-14.5,6.3l-37.4-86.1l-9.4,23.8c-1.5,3.7-1.4,7.8,0.2,11.5l26,59.7l-14.4,6.3
					c-1.5,0.7-2.2,2.4-1.6,4c0.3,0.7,0.9,1.3,1.7,1.6l33.1,13c2.9,1.1,6.1-0.3,7.3-3.2l0,0l13-33.1c0.6-1.6-0.2-3.3-1.7-3.9
					C1161.8,804.5,1161,804.5,1160.3,804.8z"/>
				
					<linearGradient id="SVGID_00000162346861369348493470000012989269202417118346_" gradientUnits="userSpaceOnUse" x1="1604.1959" y1="1428.3536" x2="1643.611" y2="1414.35" gradientTransform="matrix(0.7348 -0.6783 -0.6783 -0.7348 978.938 2954.3862)">
					<stop  offset="0" style="stop-color:#11945A"/>
					<stop  offset="0.26" style="stop-color:#109258"/>
					<stop  offset="0.41" style="stop-color:#0E8952"/>
					<stop  offset="0.54" style="stop-color:#0B7B47"/>
					<stop  offset="0.76" style="stop-color:#08703E"/>
				</linearGradient>
				<path style="fill:url(#SVGID_00000162346861369348493470000012989269202417118346_);" d="M1219.2,791.4l-31,13.5
					c-1.9,0.8-2.8,3-1.9,4.9c0,0,0,0,0,0l6,13.8c0.8,1.9,3,2.8,4.9,2c0,0,0,0,0,0l31-13.5L1219.2,791.4z"/>
				<path class="st58" d="M1176.4,732.3l14.4-6.3l37.4,86.1l9.4-23.8c1.5-3.7,1.4-7.8-0.2-11.5l-25.9-59.7l14.4-6.3
					c1.5-0.7,2.3-2.4,1.6-4c0,0,0,0,0,0c-0.3-0.7-0.9-1.3-1.7-1.6l-33.1-13c-2.9-1.1-6.2,0.3-7.3,3.2l0,0l-13,33.1
					c-0.6,1.6,0.1,3.3,1.7,3.9C1174.8,732.7,1175.6,732.6,1176.4,732.3z"/>
			</g>
		</g>
	</g>
	<g>
		
			<linearGradient id="SVGID_00000178185352103490881660000012657613931310016398_" gradientUnits="userSpaceOnUse" x1="1311.5073" y1="1035.1471" x2="1338.6307" y2="1035.1471" gradientTransform="matrix(0.9738 -0.2276 0.2276 0.9738 -290.4816 -384.0043)">
			<stop  offset="0" style="stop-color:#1591D8"/>
			<stop  offset="7.000000e-02" style="stop-color:#1997DB"/>
			<stop  offset="0.52" style="stop-color:#32BBEC"/>
			<stop  offset="0.76" style="stop-color:#3BC9F3"/>
		</linearGradient>
		<path style="fill:url(#SVGID_00000178185352103490881660000012657613931310016398_);" d="M1215.9,298.5l12.6,53.9
			c14.9-3.5,24.1-18.4,20.7-33.2C1245.7,304.3,1230.8,295,1215.9,298.5z"/>
		
			<linearGradient id="SVGID_00000085967426664122547210000001453586582855763122_" gradientUnits="userSpaceOnUse" x1="1175.4832" y1="1037.0199" x2="1232.8307" y2="1087.5326" gradientTransform="matrix(0.9738 -0.2276 0.2276 0.9738 -327.6074 -405.2315)">
			<stop  offset="0" style="stop-color:#464746"/>
			<stop  offset="0.49" style="stop-color:#434443"/>
			<stop  offset="1" style="stop-color:#3B3C3B"/>
		</linearGradient>
		<path style="fill:url(#SVGID_00000085967426664122547210000001453586582855763122_);" d="M1064.2,320.8l39.7-9.3l17.7,75.6
			l-39.7,9.3c-16.9,3.9-33.8-6.6-37.7-23.5c0,0,0,0,0,0l-3.4-14.4C1036.8,341.6,1047.3,324.8,1064.2,320.8L1064.2,320.8z"/>
		
			<linearGradient id="SVGID_00000088108429800617584150000011059044748326610621_" gradientUnits="userSpaceOnUse" x1="1192.499" y1="1118.5718" x2="1240.7739" y2="1161.0903" gradientTransform="matrix(0.9738 -0.2276 0.2276 0.9738 -327.6074 -405.2315)">
			<stop  offset="0" style="stop-color:#464746"/>
			<stop  offset="0.49" style="stop-color:#434443"/>
			<stop  offset="1" style="stop-color:#3B3C3B"/>
		</linearGradient>
		<path style="fill:url(#SVGID_00000088108429800617584150000011059044748326610621_);" d="M1089.7,394.5l31.8-7.4l17.9,76.5
			c0.7,3.2-1.2,6.4-4.4,7.1l-6.1,1.4c-11,2.6-22-4.2-24.6-15.3l0,0L1089.7,394.5z"/>
		
			<linearGradient id="SVGID_00000131359898919198369420000009078761365765374132_" gradientUnits="userSpaceOnUse" x1="1228.1448" y1="1107.8923" x2="1243.9982" y2="1121.8584" gradientTransform="matrix(0.9738 -0.2276 0.2276 0.9738 -327.6074 -405.2315)">
			<stop  offset="0" style="stop-color:#F44F5A"/>
			<stop  offset="0.44" style="stop-color:#EE3D4A"/>
			<stop  offset="1" style="stop-color:#E52030"/>
		</linearGradient>
		<path style="fill:url(#SVGID_00000131359898919198369420000009078761365765374132_);" d="M1121.6,387l13.3-3.1l4.4,18.7
			c1.4,5.8-2.2,11.6-8,13l-2.8,0.6L1121.6,387L1121.6,387z"/>
		
			<linearGradient id="SVGID_00000111910674153968564100000004448740637461791908_" gradientUnits="userSpaceOnUse" x1="1199.2524" y1="1034.5607" x2="1290.0054" y2="1034.5607" gradientTransform="matrix(0.9738 -0.2276 0.2276 0.9738 -290.4816 -384.0043)">
			<stop  offset="0" style="stop-color:#32BDEF"/>
			<stop  offset="1" style="stop-color:#1EA2E4"/>
		</linearGradient>
		<path style="fill:url(#SVGID_00000111910674153968564100000004448740637461791908_);" d="M1144.8,301.9l-41.1,9.6l17.7,75.6
			l41.1-9.6c23.6-5.2,47.2,6.7,56.4,28.2l-35.5-151.8C1183,275.9,1167,296.4,1144.8,301.9z"/>
		
			<linearGradient id="SVGID_00000013184302158400902920000008077951834018429881_" gradientUnits="userSpaceOnUse" x1="1319.1549" y1="1063.175" x2="1356.7799" y2="1063.175" gradientTransform="matrix(0.9738 -0.2276 0.2276 0.9738 -327.6074 -405.2315)">
			<stop  offset="0.24" style="stop-color:#3BC9F3"/>
			<stop  offset="0.48" style="stop-color:#32BBEC"/>
			<stop  offset="0.93" style="stop-color:#1997DB"/>
			<stop  offset="1" style="stop-color:#1591D8"/>
		</linearGradient>
		<path style="fill:url(#SVGID_00000013184302158400902920000008077951834018429881_);" d="M1189.4,241.1l4.3-1c5-1.2,10.1,2,11.3,7
			l36,154.2c1.2,5-2,10.1-7,11.3l-4.3,1c-5,1.2-10.1-2-11.3-7l-36-154.2C1181.2,247.3,1184.3,242.3,1189.4,241.1z"/>
	</g>
	<path class="st10" d="M1075.4,922.3l-16-19.2c-1.8-2.1-4.9-2.4-7-0.6l-49.7,41.4l-40.1,33.4L954,967l17.5-40.7l-30.3-75.8
		l-88.3-37.9c-4-1.7-8.7,0.1-10.4,4.2l-70.9,165.1c-1.7,4,0.1,8.7,4.2,10.4l134.1,57.5c4,1.7,8.7-0.1,10.4-4.2l18.3-42.7l0.1,0.1
		c0.1,0.1,0.1,0.2,0.2,0.3l16,19.2c0.9,1.1,2.1,1.7,3.4,1.8c1.3,0.1,2.6-0.2,3.7-1.1l19.2-16c0.1-0.1,0.2-0.2,0.3-0.3l93.4-77.8
		C1076.9,927.6,1077.2,924.4,1075.4,922.3z"/>
	<path class="st12" d="M1075.4,922.3l-16-19.2c-1.8-2.1-4.9-2.4-7-0.6l-49.7,41.4l-40.1,33.4L954,967l17.5-40.7l-30.3-75.8
		l-88.3-37.9c-4-1.7-8.7,0.1-10.4,4.2l-70.9,165.1c-1.7,4,0.1,8.7,4.2,10.4l134.1,57.5c4,1.7,8.7-0.1,10.4-4.2l18.3-42.7l0.1,0.1
		c0.1,0.1,0.1,0.2,0.2,0.3l16,19.2c0.9,1.1,2.1,1.7,3.4,1.8c1.3,0.1,2.6-0.2,3.7-1.1l19.2-16c0.1-0.1,0.2-0.2,0.3-0.3l93.4-77.8
		C1076.9,927.6,1077.2,924.4,1075.4,922.3z"/>
	<g>
		<g>
			<path class="st66" d="M842.4,816.8l-70.9,165.1c-1.7,4,0.1,8.7,4.2,10.4l134.1,57.5c4,1.7,8.7-0.1,10.4-4.2l51.2-119.4
				l-30.3-75.8l-88.3-37.9C848.8,810.9,844.1,812.8,842.4,816.8z"/>
		</g>
		<g>
			<defs>
				<path id="SVGID_00000002358618851016403200000017449289811889304753_" d="M842.4,816.8l-70.9,165.1c-1.7,4,0.1,8.7,4.2,10.4
					l134.1,57.5c4,1.7,8.7-0.1,10.4-4.2l51.2-119.4l-30.3-75.8l-88.3-37.9C848.8,810.9,844.1,812.8,842.4,816.8z"/>
			</defs>
			<clipPath id="SVGID_00000146473857805968438990000012945424653160956091_">
				<use xlink:href="#SVGID_00000002358618851016403200000017449289811889304753_"  style="overflow:visible;"/>
			</clipPath>
		</g>
		<g class="st67">
			
				<linearGradient id="SVGID_00000060001703687364949270000015688431423027686059_" gradientUnits="userSpaceOnUse" x1="765.1202" y1="586.4584" x2="933.3318" y2="379.1555" gradientTransform="matrix(0.919 0.3943 0.3943 -0.919 -72.1488 1161.9567)">
				<stop  offset="0.1209" style="stop-color:#6F6F6E;stop-opacity:0"/>
				<stop  offset="0.8164" style="stop-color:#6F6F6E"/>
			</linearGradient>
			<path style="fill:url(#SVGID_00000060001703687364949270000015688431423027686059_);" d="M842.4,816.8l-70.9,165.1
				c-1.7,4,0.1,8.7,4.2,10.4l134.1,57.5c4,1.7,8.7-0.1,10.4-4.2l51.2-119.4l-30.3-75.8l-88.3-37.9
				C848.8,810.9,844.1,812.8,842.4,816.8z"/>
		</g>
		<path class="st69" d="M850,938.8l70.5,30.3c0.5,0.2,0.6,0.9,0.4,1.5l-3,7.1c-0.3,0.6-0.9,1-1.4,0.8l-70.5-30.3
			c-0.5-0.2-0.6-0.9-0.4-1.5l3-7.1C848.9,939,849.5,938.6,850,938.8z"/>
		<path class="st69" d="M839.2,963.9l70.5,30.3c0.5,0.2,0.6,0.9,0.4,1.5l-3,7.1c-0.3,0.6-0.9,1-1.4,0.8l-70.5-30.3
			c-0.5-0.2-0.6-0.9-0.4-1.5l3-7.1C838.1,964.1,838.7,963.7,839.2,963.9z"/>
		<path class="st69" d="M861.2,912.3l70.8,30.4c0.5,0.2,0.6,0.9,0.4,1.5l-3,7.1c-0.3,0.6-0.9,1-1.4,0.8l-70.8-30.4
			c-0.5-0.2-0.6-0.9-0.4-1.5l3-7.1C860.1,912.5,860.7,912.1,861.2,912.3z"/>
		<path class="st70" d="M925.7,906.7l45.7,19.6l-30.3-75.8l-19.6,45.7C919.8,900.3,921.6,904.9,925.7,906.7z"/>
		<path class="st70" d="M925.7,906.7l45.7,19.6l-30.3-75.8l-19.6,45.7C919.8,900.3,921.6,904.9,925.7,906.7z"/>
		
			<linearGradient id="SVGID_00000003070978966041356920000008483997259185577632_" gradientUnits="userSpaceOnUse" x1="806.2586" y1="1240.3253" x2="856.1205" y2="1186.8118" gradientTransform="matrix(0.919 0.3943 -0.3943 0.919 662.8622 -550.9963)">
			<stop  offset="0" style="stop-color:#FFFFFF;stop-opacity:0"/>
			<stop  offset="0.5882" style="stop-color:#E6E7E8"/>
		</linearGradient>
		<path style="opacity:0.6;fill:url(#SVGID_00000003070978966041356920000008483997259185577632_);enable-background:new    ;" d="
			M925.7,906.7l45.7,19.6l-30.3-75.8l-19.6,45.7C919.8,900.3,921.6,904.9,925.7,906.7z"/>
		<path class="st69" d="M819.9,925.9l16.1,6.9c0.1,0,0,0.6-0.3,1.3l-3,7.1c-0.3,0.6-0.6,1.1-0.7,1.1l-16.1-6.9c-0.1,0,0-0.6,0.3-1.3
			l3-7.1C819.5,926.4,819.8,925.9,819.9,925.9z"/>
		<path class="st69" d="M809.1,951l16.1,6.9c0.1,0,0,0.6-0.3,1.3l-3,7.1c-0.3,0.6-0.6,1.1-0.7,1.1l-16.1-6.9c-0.1,0,0-0.6,0.3-1.3
			l3-7.1C808.7,951.5,809,951,809.1,951z"/>
		<g>
			<g>
				
					<linearGradient id="SVGID_00000008862620860671667310000014040248767717508794_" gradientUnits="userSpaceOnUse" x1="895.5222" y1="974.1376" x2="957.4995" y2="1034.4246" gradientTransform="matrix(0.9959 9.090818e-02 -9.090818e-02 0.9959 118.2275 -95.5463)">
					<stop  offset="0" style="stop-color:#11945A"/>
					<stop  offset="0.262" style="stop-color:#109258"/>
					<stop  offset="0.4132" style="stop-color:#0E8952"/>
					<stop  offset="0.5358" style="stop-color:#0B7B47"/>
					<stop  offset="0.6028" style="stop-color:#08703E"/>
				</linearGradient>
				<path style="fill:url(#SVGID_00000008862620860671667310000014040248767717508794_);" d="M981.1,1007.4l-19.2,16
					c-2.1,1.8-5.3,1.5-7-0.6l-53.4-64.1c-1.8-2.1-1.5-5.3,0.6-7l19.2-16c2.1-1.8,5.3-1.5,7,0.6l18.8,22.6l34.5,41.5
					C983.5,1002.5,983.2,1005.6,981.1,1007.4z"/>
				<path class="st58" d="M954.8,1022.7l-16-19.2c-1.8-2.1-1.5-5.3,0.6-7l63.2-52.6l49.7-41.4c2.1-1.8,5.3-1.5,7,0.6l16,19.2
					c1.8,2.1,1.5,5.3-0.6,7l-112.9,94C959.7,1025.1,956.6,1024.9,954.8,1022.7z"/>
			</g>
		</g>
		<path class="st69" d="M830.8,899.3l16.1,6.9c0.1,0,0,0.6-0.3,1.3l-3,7.1c-0.3,0.6-0.6,1.1-0.7,1.1l-16.1-6.9c-0.1,0,0-0.6,0.3-1.3
			l3-7.1C830.4,899.7,830.7,899.3,830.8,899.3z"/>
	</g>
</g>
</svg>
